<svg xmlns="http://www.w3.org/2000/svg" width="960" height="420" viewBox="0 0 960 420">
  <rect width="100%" height="100%" fill="#ffffff"/>
  <text x="480.0" y="25" text-anchor="middle" font-size="18" font-family="Arial" fill="#111827">Round 35 Drawdown Curve</text>
  <text x="18" y="210.0" text-anchor="middle" font-size="12" font-family="Arial" fill="#475569" transform="rotate(-90 18 210.0)">Drawdown (USD)</text>
  <line x1="70" y1="48.0" x2="940" y2="48.0" stroke="#e5e7eb" /><text x="60" y="52.0" text-anchor="end" font-size="11" fill="#475569">11</text><line x1="70" y1="126.5" x2="940" y2="126.5" stroke="#e5e7eb" /><text x="60" y="130.5" text-anchor="end" font-size="11" fill="#475569">-29</text><line x1="70" y1="205.0" x2="940" y2="205.0" stroke="#e5e7eb" /><text x="60" y="209.0" text-anchor="end" font-size="11" fill="#475569">-69</text><line x1="70" y1="283.5" x2="940" y2="283.5" stroke="#e5e7eb" /><text x="60" y="287.5" text-anchor="end" font-size="11" fill="#475569">-109</text><line x1="70" y1="362.0" x2="940" y2="362.0" stroke="#e5e7eb" /><text x="60" y="366.0" text-anchor="end" font-size="11" fill="#475569">-150</text>
  <line x1="70" y1="48" x2="70" y2="362" stroke="#94a3b8"/>
  <line x1="70" y1="362" x2="940" y2="362" stroke="#94a3b8"/>
  <polyline points="70.0,69.7 70.9,69.7 71.9,69.7 72.8,69.7 73.7,69.7 74.7,69.7 75.6,69.7 76.5,69.7 77.4,69.7 78.4,69.7 79.3,69.7 80.2,69.7 81.2,69.7 82.1,69.7 83.0,69.7 84.0,69.7 84.9,69.7 85.8,69.7 86.7,69.7 87.7,69.7 88.6,69.7 89.5,69.7 90.5,69.7 91.4,69.7 92.3,69.7 93.3,69.7 94.2,69.7 95.1,69.7 96.1,71.2 97.0,69.7 97.9,69.7 98.8,69.7 99.8,69.7 100.7,94.9 101.6,91.6 102.6,111.1 103.5,110.5 104.4,110.8 105.4,146.5 106.3,150.8 107.2,137.5 108.1,137.9 109.1,136.7 110.0,161.0 110.9,202.3 111.9,209.5 112.8,256.8 113.7,235.0 114.7,235.0 115.6,202.1 116.5,158.9 117.5,154.0 118.4,154.0 119.3,154.0 120.2,154.0 121.2,155.0 122.1,150.1 123.0,86.3 124.0,69.7 124.9,69.7 125.8,69.7 126.8,69.7 127.7,69.7 128.6,69.7 129.6,69.7 130.5,69.7 131.4,69.7 132.3,69.7 133.3,69.7 134.2,69.7 135.1,69.7 136.1,69.7 137.0,69.7 137.9,69.7 138.9,69.7 139.8,69.7 140.7,69.7 141.6,69.7 142.6,69.7 143.5,69.7 144.4,69.7 145.4,69.7 146.3,69.7 147.2,69.7 148.2,69.7 149.1,69.7 150.0,69.7 151.0,69.7 151.9,69.7 152.8,69.7 153.7,69.7 154.7,69.7 155.6,69.7 156.5,69.7 157.5,69.7 158.4,69.7 159.3,69.7 160.3,69.7 161.2,69.7 162.1,70.2 163.0,69.7 164.0,77.2 164.9,87.8 165.8,69.7 166.8,69.7 167.7,69.7 168.6,69.7 169.6,69.7 170.5,69.7 171.4,69.7 172.4,69.7 173.3,69.7 174.2,69.7 175.1,69.7 176.1,69.7 177.0,70.2 177.9,83.8 178.9,131.5 179.8,131.5 180.7,132.4 181.7,175.5 182.6,155.0 183.5,214.7 184.4,290.0 185.4,291.9 186.3,302.9 187.2,311.0 188.2,244.2 189.1,214.0 190.0,172.1 191.0,173.0 191.9,170.5 192.8,147.1 193.8,143.1 194.7,180.2 195.6,139.2 196.5,139.2 197.5,139.2 198.4,139.2 199.3,140.2 200.3,137.5 201.2,112.0 202.1,113.0 203.1,114.2 204.0,114.2 204.9,115.3 205.9,129.1 206.8,204.4 207.7,180.0 208.6,163.4 209.6,174.6 210.5,201.8 211.4,224.3 212.4,228.2 213.3,186.9 214.2,191.5 215.2,191.5 216.1,179.6 217.0,160.0 217.9,196.9 218.9,197.9 219.8,139.1 220.7,146.1 221.7,146.3 222.6,113.5 223.5,113.5 224.5,113.5 225.4,113.5 226.3,113.5 227.3,113.5 228.2,113.5 229.1,113.5 230.0,113.5 231.0,113.5 231.9,113.5 232.8,113.5 233.8,113.5 234.7,113.5 235.6,113.5 236.6,113.5 237.5,113.5 238.4,113.5 239.3,113.5 240.3,114.7 241.2,115.7 242.1,88.6 243.1,84.0 244.0,114.3 244.9,157.5 245.9,192.3 246.8,209.1 247.7,211.0 248.7,210.8 249.6,234.7 250.5,258.7 251.4,290.3 252.4,299.7 253.3,307.7 254.2,304.6 255.2,286.1 256.1,272.7 257.0,159.3 258.0,171.2 258.9,179.6 259.8,176.6 260.7,176.6 261.7,176.6 262.6,176.6 263.5,176.6 264.5,176.6 265.4,176.6 266.3,176.6 267.3,176.6 268.2,176.6 269.1,176.6 270.1,176.6 271.0,176.6 271.9,176.6 272.8,176.6 273.8,178.4 274.7,174.9 275.6,93.7 276.6,95.9 277.5,69.7 278.4,69.7 279.4,69.7 280.3,69.7 281.2,69.7 282.1,69.7 283.1,71.5 284.0,157.6 284.9,157.6 285.9,157.6 286.8,157.6 287.7,158.7 288.7,250.7 289.6,250.7 290.5,250.7 291.5,250.7 292.4,252.6 293.3,192.3 294.2,135.0 295.2,146.4 296.1,85.4 297.0,103.6 298.0,103.6 298.9,103.6 299.8,103.6 300.8,103.6 301.7,103.6 302.6,103.6 303.6,103.6 304.5,103.6 305.4,103.6 306.3,103.6 307.3,103.6 308.2,103.6 309.1,103.6 310.1,103.6 311.0,103.6 311.9,103.6 312.9,103.6 313.8,103.6 314.7,103.6 315.6,103.6 316.6,103.6 317.5,103.6 318.4,104.3 319.4,88.2 320.3,129.4 321.2,125.1 322.2,114.2 323.1,69.7 324.0,77.7 325.0,69.7 325.9,77.3 326.8,77.3 327.7,77.3 328.7,77.3 329.6,77.3 330.5,77.3 331.5,77.3 332.4,77.3 333.3,77.3 334.3,77.3 335.2,77.3 336.1,77.3 337.0,77.3 338.0,77.3 338.9,77.3 339.8,77.3 340.8,77.3 341.7,77.3 342.6,77.3 343.6,77.3 344.5,78.0 345.4,79.1 346.4,69.7 347.3,69.7 348.2,100.9 349.1,100.9 350.1,100.9 351.0,100.9 351.9,100.9 352.9,100.9 353.8,100.9 354.7,100.9 355.7,100.9 356.6,100.9 357.5,100.9 358.4,100.9 359.4,100.9 360.3,100.9 361.2,100.9 362.2,100.9 363.1,100.9 364.0,100.9 365.0,101.4 365.9,101.4 366.8,109.3 367.8,92.7 368.7,69.7 369.6,69.7 370.5,69.7 371.5,70.3 372.4,106.6 373.3,78.8 374.3,69.7 375.2,73.8 376.1,87.3 377.1,70.5 378.0,95.9 378.9,87.5 379.9,92.9 380.8,79.6 381.7,69.7 382.6,69.7 383.6,69.7 384.5,69.7 385.4,69.7 386.4,69.7 387.3,69.7 388.2,69.7 389.2,69.7 390.1,69.7 391.0,69.7 391.9,69.7 392.9,70.9 393.8,178.1 394.7,178.1 395.7,178.1 396.6,179.5 397.5,177.3 398.5,167.7 399.4,136.4 400.3,129.7 401.3,134.3 402.2,134.3 403.1,134.3 404.0,134.3 405.0,134.3 405.9,134.3 406.8,134.3 407.8,134.3 408.7,134.3 409.6,134.3 410.6,134.3 411.5,134.3 412.4,134.3 413.3,134.3 414.3,134.3 415.2,134.3 416.1,134.3 417.1,134.3 418.0,134.3 418.9,134.3 419.9,134.3 420.8,134.3 421.7,134.3 422.7,134.3 423.6,134.3 424.5,134.3 425.4,134.3 426.4,134.3 427.3,134.3 428.2,134.3 429.2,134.3 430.1,134.3 431.0,134.3 432.0,134.3 432.9,134.3 433.8,134.3 434.7,134.3 435.7,134.3 436.6,134.3 437.5,134.3 438.5,134.3 439.4,134.3 440.3,134.3 441.3,134.3 442.2,134.3 443.1,134.3 444.1,134.3 445.0,134.3 445.9,134.3 446.8,134.3 447.8,134.3 448.7,134.3 449.6,134.3 450.6,134.3 451.5,134.3 452.4,134.3 453.4,134.3 454.3,135.0 455.2,70.4 456.1,110.7 457.1,115.4 458.0,130.6 458.9,69.7 459.9,90.9 460.8,103.9 461.7,69.7 462.7,69.7 463.6,69.7 464.5,69.7 465.5,69.7 466.4,69.7 467.3,69.7 468.2,69.7 469.2,69.7 470.1,69.7 471.0,69.7 472.0,69.7 472.9,69.7 473.8,69.7 474.8,69.7 475.7,69.7 476.6,69.7 477.6,69.7 478.5,69.7 479.4,70.9 480.3,73.8 481.3,73.8 482.2,69.7 483.1,112.3 484.1,69.7 485.0,69.7 485.9,71.1 486.9,69.7 487.8,69.7 488.7,69.7 489.6,69.7 490.6,106.1 491.5,69.7 492.4,76.8 493.4,92.7 494.3,77.8 495.2,77.8 496.2,77.8 497.1,77.8 498.0,77.8 499.0,77.8 499.9,77.8 500.8,78.4 501.7,69.7 502.7,71.9 503.6,75.0 504.5,69.7 505.5,69.7 506.4,69.7 507.3,69.7 508.3,69.7 509.2,69.7 510.1,69.7 511.0,69.7 512.0,69.7 512.9,69.7 513.8,69.7 514.8,69.7 515.7,69.7 516.6,69.7 517.6,69.7 518.5,69.7 519.4,69.7 520.4,69.7 521.3,69.7 522.2,69.7 523.1,69.7 524.1,70.5 525.0,69.7 525.9,69.7 526.9,101.0 527.8,69.7 528.7,69.7 529.7,69.7 530.6,69.7 531.5,69.7 532.4,69.7 533.4,69.7 534.3,69.7 535.2,69.7 536.2,69.7 537.1,69.7 538.0,69.7 539.0,69.7 539.9,69.7 540.8,69.7 541.8,69.7 542.7,69.7 543.6,69.7 544.5,69.7 545.5,69.7 546.4,69.7 547.3,69.7 548.3,69.7 549.2,69.7 550.1,69.7 551.1,69.7 552.0,69.7 552.9,69.7 553.9,69.7 554.8,69.7 555.7,69.7 556.6,69.7 557.6,69.7 558.5,69.7 559.4,70.5 560.4,69.7 561.3,69.7 562.2,82.8 563.2,69.7 564.1,69.7 565.0,69.7 565.9,69.7 566.9,69.7 567.8,69.7 568.7,69.7 569.7,69.7 570.6,69.7 571.5,69.7 572.5,69.7 573.4,69.7 574.3,69.7 575.3,69.7 576.2,69.7 577.1,69.7 578.0,69.7 579.0,69.7 579.9,69.7 580.8,69.7 581.8,69.7 582.7,69.7 583.6,69.7 584.6,72.9 585.5,69.7 586.4,69.7 587.3,87.4 588.3,84.7 589.2,84.7 590.1,84.7 591.1,84.7 592.0,84.7 592.9,84.7 593.9,84.7 594.8,84.7 595.7,84.7 596.7,84.7 597.6,84.7 598.5,84.7 599.4,84.7 600.4,84.7 601.3,84.7 602.2,84.7 603.2,84.7 604.1,84.7 605.0,84.7 606.0,84.7 606.9,85.7 607.8,69.7 608.7,114.2 609.7,111.5 610.6,235.4 611.5,284.5 612.5,339.4 613.4,339.4 614.3,340.3 615.3,324.0 616.2,243.3 617.1,199.5 618.1,166.1 619.0,132.8 619.9,132.8 620.8,132.8 621.8,132.8 622.7,132.8 623.6,132.8 624.6,132.8 625.5,132.8 626.4,132.8 627.4,132.8 628.3,132.8 629.2,132.8 630.1,132.8 631.1,132.8 632.0,132.8 632.9,132.8 633.9,132.8 634.8,132.8 635.7,132.8 636.7,132.8 637.6,132.8 638.5,132.8 639.5,132.8 640.4,136.6 641.3,125.5 642.2,69.7 643.2,69.7 644.1,88.7 645.0,86.4 646.0,82.4 646.9,69.7 647.8,91.7 648.8,91.7 649.7,92.7 650.6,69.7 651.6,69.8 652.5,69.7 653.4,106.0 654.3,106.0 655.3,106.0 656.2,106.0 657.1,106.0 658.1,106.0 659.0,106.0 659.9,106.0 660.9,106.0 661.8,106.0 662.7,106.0 663.6,106.0 664.6,106.0 665.5,106.0 666.4,106.0 667.4,106.0 668.3,106.0 669.2,106.0 670.2,106.0 671.1,106.0 672.0,106.0 673.0,106.0 673.9,106.0 674.8,106.0 675.7,106.0 676.7,106.0 677.6,106.0 678.5,106.0 679.5,106.0 680.4,106.0 681.3,106.0 682.3,106.0 683.2,106.0 684.1,106.0 685.0,106.0 686.0,106.0 686.9,106.0 687.8,106.0 688.8,106.0 689.7,106.0 690.6,106.0 691.6,106.0 692.5,106.0 693.4,106.0 694.4,106.0 695.3,106.0 696.2,106.0 697.1,106.0 698.1,106.9 699.0,142.0 699.9,116.6 700.9,77.7 701.8,69.7 702.7,69.7 703.7,69.7 704.6,69.7 705.5,69.7 706.4,73.0 707.4,69.7 708.3,69.7 709.2,69.7 710.2,72.1 711.1,69.7 712.0,69.7 713.0,69.7 713.9,69.7 714.8,69.7 715.8,69.7 716.7,69.7 717.6,69.7 718.5,69.7 719.5,69.7 720.4,69.7 721.3,69.7 722.3,69.7 723.2,69.7 724.1,69.7 725.1,69.7 726.0,69.7 726.9,69.7 727.9,69.7 728.8,69.7 729.7,69.7 730.6,69.7 731.6,69.7 732.5,69.7 733.4,69.7 734.4,69.7 735.3,69.7 736.2,69.7 737.2,69.7 738.1,69.7 739.0,69.7 739.9,69.7 740.9,69.7 741.8,69.7 742.7,69.7 743.7,69.7 744.6,69.7 745.5,69.7 746.5,69.7 747.4,69.7 748.3,69.7 749.3,69.7 750.2,69.7 751.1,69.7 752.0,69.7 753.0,69.7 753.9,69.7 754.8,69.7 755.8,69.7 756.7,69.7 757.6,69.7 758.6,69.7 759.5,69.7 760.4,69.7 761.3,69.7 762.3,69.7 763.2,69.7 764.1,69.7 765.1,69.7 766.0,69.7 766.9,69.7 767.9,69.7 768.8,69.7 769.7,69.7 770.7,69.7 771.6,69.7 772.5,69.7 773.4,69.7 774.4,69.7 775.3,69.7 776.2,69.7 777.2,69.7 778.1,69.7 779.0,69.7 780.0,69.7 780.9,69.7 781.8,69.7 782.7,69.7 783.7,69.7 784.6,69.7 785.5,69.7 786.5,69.7 787.4,69.7 788.3,69.7 789.3,73.3 790.2,69.7 791.1,109.2 792.1,196.4 793.0,198.1 793.9,102.7 794.8,69.7 795.8,69.7 796.7,106.0 797.6,94.7 798.6,94.7 799.5,94.7 800.4,96.0 801.4,69.7 802.3,69.7 803.2,69.7 804.1,69.7 805.1,69.7 806.0,69.7 806.9,69.7 807.9,69.7 808.8,69.7 809.7,69.7 810.7,69.7 811.6,69.7 812.5,69.7 813.5,69.7 814.4,69.7 815.3,69.7 816.2,70.8 817.2,69.7 818.1,152.1 819.0,145.9 820.0,69.7 820.9,71.1 821.8,71.1 822.8,71.1 823.7,71.1 824.6,71.1 825.6,71.1 826.5,71.1 827.4,71.1 828.3,71.1 829.3,71.1 830.2,71.1 831.1,71.1 832.1,71.1 833.0,71.1 833.9,72.2 834.9,69.7 835.8,86.5 836.7,69.7 837.6,76.1 838.6,76.1 839.5,76.1 840.4,76.1 841.4,76.1 842.3,76.1 843.2,76.1 844.2,76.1 845.1,76.1 846.0,76.1 847.0,76.1 847.9,76.1 848.8,76.1 849.7,76.1 850.7,76.1 851.6,76.1 852.5,76.1 853.5,76.1 854.4,76.1 855.3,76.1 856.3,76.1 857.2,76.1 858.1,76.1 859.0,76.1 860.0,76.1 860.9,76.1 861.8,76.1 862.8,76.1 863.7,76.1 864.6,76.1 865.6,76.1 866.5,76.1 867.4,76.1 868.4,76.1 869.3,76.1 870.2,76.1 871.1,76.1 872.1,76.1 873.0,76.1 873.9,76.1 874.9,76.1 875.8,76.1 876.7,76.1 877.7,76.1 878.6,76.1 879.5,76.1 880.4,76.1 881.4,76.1 882.3,76.1 883.2,76.1 884.2,76.1 885.1,76.1 886.0,76.1 887.0,76.1 887.9,76.1 888.8,76.1 889.8,76.1 890.7,76.1 891.6,76.1 892.5,76.1 893.5,76.1 894.4,76.1 895.3,76.1 896.3,76.1 897.2,76.1 898.1,76.1 899.1,76.1 900.0,76.1 900.9,76.1 901.9,76.1 902.8,76.1 903.7,76.1 904.6,76.1 905.6,76.1 906.5,76.1 907.4,76.1 908.4,76.1 909.3,76.1 910.2,76.1 911.2,76.1 912.1,76.1 913.0,76.1 913.9,76.1 914.9,76.1 915.8,76.1 916.7,76.1 917.7,76.1 918.6,76.1 919.5,76.1 920.5,76.1 921.4,76.1 922.3,76.1 923.3,76.1 924.2,76.1 925.1,76.1 926.0,76.1 927.0,76.1 927.9,76.1 928.8,76.1 929.8,76.1 930.7,76.1 931.6,76.1 932.6,76.1 933.5,76.1 934.4,76.1 935.3,76.1 936.3,76.1 937.2,76.1 938.1,76.1 939.1,76.1 940.0,76.1" fill="none" stroke="#dc2626" stroke-width="2.5"/>
  <text x="70.0" y="398" text-anchor="middle" font-size="11" fill="#475569">2023-01-02</text>
<text x="505.0" y="398" text-anchor="middle" font-size="11" fill="#475569">2024-07-02</text>
<text x="940.0" y="398" text-anchor="middle" font-size="11" fill="#475569">2025-12-30</text>
</svg>
