<svg xmlns="http://www.w3.org/2000/svg" width="960" height="420" viewBox="0 0 960 420">
  <rect width="100%" height="100%" fill="#ffffff"/>
  <text x="480.0" y="25" text-anchor="middle" font-size="18" font-family="Arial" fill="#111827">Round 35 Equity Curve</text>
  <text x="18" y="210.0" text-anchor="middle" font-size="12" font-family="Arial" fill="#475569" transform="rotate(-90 18 210.0)">Cumulative PnL (USD)</text>
  <line x1="70" y1="48.0" x2="940" y2="48.0" stroke="#e5e7eb" /><text x="60" y="52.0" text-anchor="end" font-size="11" fill="#475569">1167</text><line x1="70" y1="126.5" x2="940" y2="126.5" stroke="#e5e7eb" /><text x="60" y="130.5" text-anchor="end" font-size="11" fill="#475569">832</text><line x1="70" y1="205.0" x2="940" y2="205.0" stroke="#e5e7eb" /><text x="60" y="209.0" text-anchor="end" font-size="11" fill="#475569">496</text><line x1="70" y1="283.5" x2="940" y2="283.5" stroke="#e5e7eb" /><text x="60" y="287.5" text-anchor="end" font-size="11" fill="#475569">160</text><line x1="70" y1="362.0" x2="940" y2="362.0" stroke="#e5e7eb" /><text x="60" y="366.0" text-anchor="end" font-size="11" fill="#475569">-175</text>
  <line x1="70" y1="48" x2="70" y2="362" stroke="#94a3b8"/>
  <line x1="70" y1="362" x2="940" y2="362" stroke="#94a3b8"/>
  <polyline points="70.0,321.0 70.9,321.0 71.9,321.0 72.8,321.0 73.7,321.0 74.7,321.0 75.6,321.0 76.5,321.0 77.4,321.0 78.4,321.0 79.3,321.0 80.2,321.0 81.2,321.0 82.1,321.0 83.0,321.0 84.0,321.0 84.9,321.0 85.8,321.0 86.7,321.0 87.7,321.0 88.6,321.0 89.5,321.0 90.5,321.0 91.4,321.0 92.3,321.0 93.3,321.0 94.2,321.0 95.1,321.0 96.1,321.2 97.0,319.5 97.9,319.5 98.8,318.5 99.8,318.0 100.7,321.0 101.6,320.6 102.6,322.9 103.5,322.8 104.4,322.9 105.4,327.1 106.3,327.7 107.2,326.1 108.1,326.1 109.1,326.0 110.0,328.9 110.9,333.8 111.9,334.7 112.8,340.3 113.7,337.7 114.7,337.7 115.6,333.8 116.5,328.6 117.5,328.0 118.4,328.0 119.3,328.0 120.2,328.0 121.2,328.2 122.1,327.6 123.0,319.9 124.0,298.4 124.9,282.2 125.8,282.2 126.8,282.2 127.7,282.2 128.6,282.2 129.6,282.2 130.5,282.2 131.4,282.2 132.3,282.2 133.3,282.2 134.2,282.2 135.1,282.2 136.1,282.2 137.0,282.2 137.9,282.2 138.9,282.2 139.8,282.2 140.7,282.2 141.6,282.2 142.6,282.2 143.5,282.2 144.4,282.2 145.4,282.2 146.3,282.2 147.2,282.2 148.2,282.2 149.1,282.2 150.0,282.2 151.0,282.2 151.9,282.2 152.8,282.2 153.7,282.2 154.7,282.2 155.6,282.2 156.5,282.2 157.5,282.2 158.4,282.2 159.3,282.2 160.3,282.2 161.2,282.2 162.1,282.3 163.0,281.4 164.0,282.3 164.9,283.6 165.8,275.5 166.8,275.5 167.7,275.5 168.6,275.5 169.6,275.5 170.5,275.5 171.4,275.5 172.4,275.5 173.3,275.5 174.2,275.5 175.1,275.5 176.1,275.5 177.0,275.6 177.9,277.2 178.9,282.9 179.8,282.9 180.7,283.0 181.7,288.2 182.6,285.7 183.5,292.9 184.4,301.9 185.4,302.1 186.3,303.4 187.2,304.4 188.2,296.4 189.1,292.8 190.0,287.8 191.0,287.9 191.9,287.6 192.8,284.8 193.8,284.3 194.7,288.7 195.6,283.8 196.5,283.8 197.5,283.8 198.4,283.8 199.3,283.9 200.3,283.6 201.2,280.6 202.1,280.7 203.1,280.8 204.0,280.8 204.9,281.0 205.9,282.6 206.8,291.6 207.7,288.7 208.6,286.7 209.6,288.1 210.5,291.3 211.4,294.0 212.4,294.5 213.3,289.5 214.2,290.1 215.2,290.1 216.1,288.7 217.0,286.3 217.9,290.7 218.9,290.9 219.8,283.8 220.7,284.7 221.7,284.7 222.6,280.7 223.5,280.7 224.5,280.7 225.4,280.7 226.3,280.7 227.3,280.7 228.2,280.7 229.1,280.7 230.0,280.7 231.0,280.7 231.9,280.7 232.8,280.7 233.8,280.7 234.7,280.7 235.6,280.7 236.6,280.7 237.5,280.7 238.4,280.7 239.3,280.7 240.3,280.9 241.2,281.0 242.1,277.8 243.1,277.2 244.0,280.8 244.9,286.0 245.9,290.2 246.8,292.2 247.7,292.4 248.7,292.4 249.6,295.2 250.5,298.1 251.4,301.9 252.4,303.0 253.3,304.0 254.2,303.6 255.2,301.4 256.1,299.8 257.0,286.2 258.0,287.7 258.9,288.7 259.8,288.3 260.7,288.3 261.7,288.3 262.6,288.3 263.5,288.3 264.5,288.3 265.4,288.3 266.3,288.3 267.3,288.3 268.2,288.3 269.1,288.3 270.1,288.3 271.0,288.3 271.9,288.3 272.8,288.3 273.8,288.5 274.7,288.1 275.6,278.4 276.6,278.6 277.5,271.2 278.4,271.2 279.4,271.2 280.3,271.2 281.2,271.2 282.1,271.2 283.1,271.4 284.0,281.7 284.9,281.7 285.9,281.7 286.8,281.7 287.7,281.8 288.7,292.8 289.6,292.8 290.5,292.8 291.5,292.8 292.4,293.0 293.3,285.8 294.2,279.0 295.2,280.3 296.1,273.0 297.0,275.2 298.0,275.2 298.9,275.2 299.8,275.2 300.8,275.2 301.7,275.2 302.6,275.2 303.6,275.2 304.5,275.2 305.4,275.2 306.3,275.2 307.3,275.2 308.2,275.2 309.1,275.2 310.1,275.2 311.0,275.2 311.9,275.2 312.9,275.2 313.8,275.2 314.7,275.2 315.6,275.2 316.6,275.2 317.5,275.2 318.4,275.3 319.4,273.4 320.3,278.3 321.2,277.8 322.2,276.5 323.1,269.0 324.0,270.0 325.0,259.6 325.9,260.5 326.8,260.5 327.7,260.5 328.7,260.5 329.6,260.5 330.5,260.5 331.5,260.5 332.4,260.5 333.3,260.5 334.3,260.5 335.2,260.5 336.1,260.5 337.0,260.5 338.0,260.5 338.9,260.5 339.8,260.5 340.8,260.5 341.7,260.5 342.6,260.5 343.6,260.5 344.5,260.6 345.4,260.7 346.4,249.0 347.3,248.3 348.2,252.1 349.1,252.1 350.1,252.1 351.0,252.1 351.9,252.1 352.9,252.1 353.8,252.1 354.7,252.1 355.7,252.1 356.6,252.1 357.5,252.1 358.4,252.1 359.4,252.1 360.3,252.1 361.2,252.1 362.2,252.1 363.1,252.1 364.0,252.1 365.0,252.1 365.9,252.1 366.8,253.1 367.8,251.1 368.7,248.3 369.6,248.3 370.5,248.3 371.5,248.4 372.4,252.7 373.3,249.4 374.3,248.1 375.2,248.6 376.1,250.2 377.1,248.2 378.0,251.2 378.9,250.2 379.9,250.8 380.8,249.2 381.7,244.9 382.6,242.4 383.6,240.8 384.5,233.8 385.4,233.8 386.4,233.8 387.3,233.8 388.2,233.8 389.2,233.8 390.1,233.8 391.0,233.8 391.9,233.8 392.9,234.0 393.8,246.8 394.7,246.8 395.7,246.8 396.6,247.0 397.5,246.7 398.5,245.5 399.4,241.8 400.3,241.0 401.3,241.6 402.2,241.6 403.1,241.6 404.0,241.6 405.0,241.6 405.9,241.6 406.8,241.6 407.8,241.6 408.7,241.6 409.6,241.6 410.6,241.6 411.5,241.6 412.4,241.6 413.3,241.6 414.3,241.6 415.2,241.6 416.1,241.6 417.1,241.6 418.0,241.6 418.9,241.6 419.9,241.6 420.8,241.6 421.7,241.6 422.7,241.6 423.6,241.6 424.5,241.6 425.4,241.6 426.4,241.6 427.3,241.6 428.2,241.6 429.2,241.6 430.1,241.6 431.0,241.6 432.0,241.6 432.9,241.6 433.8,241.6 434.7,241.6 435.7,241.6 436.6,241.6 437.5,241.6 438.5,241.6 439.4,241.6 440.3,241.6 441.3,241.6 442.2,241.6 443.1,241.6 444.1,241.6 445.0,241.6 445.9,241.6 446.8,241.6 447.8,241.6 448.7,241.6 449.6,241.6 450.6,241.6 451.5,241.6 452.4,241.6 453.4,241.6 454.3,241.6 455.2,233.9 456.1,238.7 457.1,239.3 458.0,241.1 458.9,233.6 459.9,236.2 460.8,237.7 461.7,228.8 462.7,225.7 463.6,225.7 464.5,225.7 465.5,225.7 466.4,225.7 467.3,225.7 468.2,225.7 469.2,225.7 470.1,225.7 471.0,225.7 472.0,225.7 472.9,225.7 473.8,225.7 474.8,225.7 475.7,225.7 476.6,225.7 477.6,225.7 478.5,225.7 479.4,225.8 480.3,226.2 481.3,226.2 482.2,220.3 483.1,225.4 484.1,219.3 485.0,219.3 485.9,219.5 486.9,218.4 487.8,215.7 488.7,214.5 489.6,213.2 490.6,217.6 491.5,210.5 492.4,211.4 493.4,213.3 494.3,211.5 495.2,211.5 496.2,211.5 497.1,211.5 498.0,211.5 499.0,211.5 499.9,211.5 500.8,211.6 501.7,204.7 502.7,205.0 503.6,205.4 504.5,203.7 505.5,203.7 506.4,203.7 507.3,203.7 508.3,203.7 509.2,203.7 510.1,203.7 511.0,203.7 512.0,203.7 512.9,203.7 513.8,203.7 514.8,203.7 515.7,203.7 516.6,203.7 517.6,203.7 518.5,203.7 519.4,203.7 520.4,203.7 521.3,203.7 522.2,203.7 523.1,203.7 524.1,203.8 525.0,198.4 525.9,196.0 526.9,199.7 527.8,193.0 528.7,193.0 529.7,193.0 530.6,193.0 531.5,193.0 532.4,193.0 533.4,193.0 534.3,193.0 535.2,193.0 536.2,193.0 537.1,193.0 538.0,193.0 539.0,193.0 539.9,193.0 540.8,193.0 541.8,193.0 542.7,193.0 543.6,193.0 544.5,193.0 545.5,193.0 546.4,193.0 547.3,193.0 548.3,193.0 549.2,193.0 550.1,193.0 551.1,193.0 552.0,193.0 552.9,193.0 553.9,193.0 554.8,193.0 555.7,193.0 556.6,193.0 557.6,193.0 558.5,193.0 559.4,193.1 560.4,190.8 561.3,188.0 562.2,189.6 563.2,178.7 564.1,174.0 565.0,174.0 565.9,174.0 566.9,174.0 567.8,174.0 568.7,174.0 569.7,174.0 570.6,174.0 571.5,174.0 572.5,174.0 573.4,174.0 574.3,174.0 575.3,174.0 576.2,174.0 577.1,174.0 578.0,174.0 579.0,174.0 579.9,174.0 580.8,174.0 581.8,174.0 582.7,174.0 583.6,174.0 584.6,174.4 585.5,168.6 586.4,163.0 587.3,165.1 588.3,164.8 589.2,164.8 590.1,164.8 591.1,164.8 592.0,164.8 592.9,164.8 593.9,164.8 594.8,164.8 595.7,164.8 596.7,164.8 597.6,164.8 598.5,164.8 599.4,164.8 600.4,164.8 601.3,164.8 602.2,164.8 603.2,164.8 604.1,164.8 605.0,164.8 606.0,164.8 606.9,164.9 607.8,154.9 608.7,160.2 609.7,159.9 610.6,174.7 611.5,180.6 612.5,187.1 613.4,187.1 614.3,187.2 615.3,185.3 616.2,175.6 617.1,170.4 618.1,166.4 619.0,162.4 619.9,162.4 620.8,162.4 621.8,162.4 622.7,162.4 623.6,162.4 624.6,162.4 625.5,162.4 626.4,162.4 627.4,162.4 628.3,162.4 629.2,162.4 630.1,162.4 631.1,162.4 632.0,162.4 632.9,162.4 633.9,162.4 634.8,162.4 635.7,162.4 636.7,162.4 637.6,162.4 638.5,162.4 639.5,162.4 640.4,162.9 641.3,161.5 642.2,154.7 643.2,154.3 644.1,156.6 645.0,156.3 646.0,155.9 646.9,152.6 647.8,155.2 648.8,155.2 649.7,155.4 650.6,151.4 651.6,151.4 652.5,143.3 653.4,147.6 654.3,147.6 655.3,147.6 656.2,147.6 657.1,147.6 658.1,147.6 659.0,147.6 659.9,147.6 660.9,147.6 661.8,147.6 662.7,147.6 663.6,147.6 664.6,147.6 665.5,147.6 666.4,147.6 667.4,147.6 668.3,147.6 669.2,147.6 670.2,147.6 671.1,147.6 672.0,147.6 673.0,147.6 673.9,147.6 674.8,147.6 675.7,147.6 676.7,147.6 677.6,147.6 678.5,147.6 679.5,147.6 680.4,147.6 681.3,147.6 682.3,147.6 683.2,147.6 684.1,147.6 685.0,147.6 686.0,147.6 686.9,147.6 687.8,147.6 688.8,147.6 689.7,147.6 690.6,147.6 691.6,147.6 692.5,147.6 693.4,147.6 694.4,147.6 695.3,147.6 696.2,147.6 697.1,147.6 698.1,147.7 699.0,151.9 699.9,148.9 700.9,144.2 701.8,138.6 702.7,138.6 703.7,138.6 704.6,138.6 705.5,138.6 706.4,139.0 707.4,131.8 708.3,126.6 709.2,115.3 710.2,115.6 711.1,114.4 712.0,114.4 713.0,114.4 713.9,114.4 714.8,114.4 715.8,114.4 716.7,114.4 717.6,114.4 718.5,114.4 719.5,114.4 720.4,114.4 721.3,114.4 722.3,114.4 723.2,114.4 724.1,114.4 725.1,114.4 726.0,114.4 726.9,114.4 727.9,114.4 728.8,114.4 729.7,114.4 730.6,114.4 731.6,114.4 732.5,114.4 733.4,114.4 734.4,114.4 735.3,114.4 736.2,114.4 737.2,114.4 738.1,114.4 739.0,114.4 739.9,114.4 740.9,114.4 741.8,114.4 742.7,114.4 743.7,114.4 744.6,114.4 745.5,114.4 746.5,114.4 747.4,114.4 748.3,114.4 749.3,114.4 750.2,114.4 751.1,114.4 752.0,114.4 753.0,114.4 753.9,114.4 754.8,114.4 755.8,114.4 756.7,114.4 757.6,114.4 758.6,114.4 759.5,114.4 760.4,114.4 761.3,114.4 762.3,114.4 763.2,114.4 764.1,114.4 765.1,114.4 766.0,114.4 766.9,114.4 767.9,114.4 768.8,114.4 769.7,114.4 770.7,114.4 771.6,114.4 772.5,114.4 773.4,114.4 774.4,114.4 775.3,114.4 776.2,114.4 777.2,114.4 778.1,114.4 779.0,114.4 780.0,114.4 780.9,114.4 781.8,114.4 782.7,114.4 783.7,114.4 784.6,114.4 785.5,114.4 786.5,114.4 787.4,114.4 788.3,114.4 789.3,114.8 790.2,111.4 791.1,116.1 792.1,126.5 793.0,126.7 793.9,115.3 794.8,109.3 795.8,106.7 796.7,111.0 797.6,109.7 798.6,109.7 799.5,109.7 800.4,109.8 801.4,106.2 802.3,104.8 803.2,97.3 804.1,94.6 805.1,94.6 806.0,94.6 806.9,94.6 807.9,94.6 808.8,94.6 809.7,94.6 810.7,94.6 811.6,94.6 812.5,94.6 813.5,94.6 814.4,94.6 815.3,94.6 816.2,94.7 817.2,91.2 818.1,101.1 819.0,100.3 820.0,82.9 820.9,83.1 821.8,83.1 822.8,83.1 823.7,83.1 824.6,83.1 825.6,83.1 826.5,83.1 827.4,83.1 828.3,83.1 829.3,83.1 830.2,83.1 831.1,83.1 832.1,83.1 833.0,83.1 833.9,83.2 834.9,75.6 835.8,77.6 836.7,69.7 837.6,70.4 838.6,70.4 839.5,70.4 840.4,70.4 841.4,70.4 842.3,70.4 843.2,70.4 844.2,70.4 845.1,70.4 846.0,70.4 847.0,70.4 847.9,70.4 848.8,70.4 849.7,70.4 850.7,70.4 851.6,70.4 852.5,70.4 853.5,70.4 854.4,70.4 855.3,70.4 856.3,70.4 857.2,70.4 858.1,70.4 859.0,70.4 860.0,70.4 860.9,70.4 861.8,70.4 862.8,70.4 863.7,70.4 864.6,70.4 865.6,70.4 866.5,70.4 867.4,70.4 868.4,70.4 869.3,70.4 870.2,70.4 871.1,70.4 872.1,70.4 873.0,70.4 873.9,70.4 874.9,70.4 875.8,70.4 876.7,70.4 877.7,70.4 878.6,70.4 879.5,70.4 880.4,70.4 881.4,70.4 882.3,70.4 883.2,70.4 884.2,70.4 885.1,70.4 886.0,70.4 887.0,70.4 887.9,70.4 888.8,70.4 889.8,70.4 890.7,70.4 891.6,70.4 892.5,70.4 893.5,70.4 894.4,70.4 895.3,70.4 896.3,70.4 897.2,70.4 898.1,70.4 899.1,70.4 900.0,70.4 900.9,70.4 901.9,70.4 902.8,70.4 903.7,70.4 904.6,70.4 905.6,70.4 906.5,70.4 907.4,70.4 908.4,70.4 909.3,70.4 910.2,70.4 911.2,70.4 912.1,70.4 913.0,70.4 913.9,70.4 914.9,70.4 915.8,70.4 916.7,70.4 917.7,70.4 918.6,70.4 919.5,70.4 920.5,70.4 921.4,70.4 922.3,70.4 923.3,70.4 924.2,70.4 925.1,70.4 926.0,70.4 927.0,70.4 927.9,70.4 928.8,70.4 929.8,70.4 930.7,70.4 931.6,70.4 932.6,70.4 933.5,70.4 934.4,70.4 935.3,70.4 936.3,70.4 937.2,70.4 938.1,70.4 939.1,70.4 940.0,70.4" fill="none" stroke="#2563eb" stroke-width="2.5"/>
  <text x="70.0" y="398" text-anchor="middle" font-size="11" fill="#475569">2023-01-02</text>
<text x="505.0" y="398" text-anchor="middle" font-size="11" fill="#475569">2024-07-02</text>
<text x="940.0" y="398" text-anchor="middle" font-size="11" fill="#475569">2025-12-30</text>
</svg>
