<svg xmlns="http://www.w3.org/2000/svg" width="960" height="420" viewBox="0 0 960 420">
  <rect width="100%" height="100%" fill="#ffffff"/>
  <text x="480.0" y="25" text-anchor="middle" font-size="18" font-family="Arial" fill="#111827">Round 35 Monthly PnL</text>
  <text x="18" y="210.0" text-anchor="middle" font-size="12" font-family="Arial" fill="#475569" transform="rotate(-90 18 210.0)">Monthly PnL (USD)</text>
  <line x1="70" y1="48.0" x2="940" y2="48.0" stroke="#e5e7eb" /><text x="60" y="52.0" text-anchor="end" font-size="11" fill="#475569">243</text><line x1="70" y1="126.5" x2="940" y2="126.5" stroke="#e5e7eb" /><text x="60" y="130.5" text-anchor="end" font-size="11" fill="#475569">163</text><line x1="70" y1="205.0" x2="940" y2="205.0" stroke="#e5e7eb" /><text x="60" y="209.0" text-anchor="end" font-size="11" fill="#475569">83</text><line x1="70" y1="283.5" x2="940" y2="283.5" stroke="#e5e7eb" /><text x="60" y="287.5" text-anchor="end" font-size="11" fill="#475569">3</text><line x1="70" y1="362.0" x2="940" y2="362.0" stroke="#e5e7eb" /><text x="60" y="366.0" text-anchor="end" font-size="11" fill="#475569">-77</text>
  <line x1="70" y1="48" x2="70" y2="362" stroke="#94a3b8"/>
  <line x1="70" y1="362" x2="940" y2="362" stroke="#94a3b8"/>
  <polyline points="70.0,286.5 94.9,340.3 119.7,69.7 144.6,286.8 169.4,330.5 194.3,272.9 219.1,249.5 244.0,318.2 268.9,259.2 293.7,258.8 318.6,224.7 343.4,250.9 368.3,239.2 393.1,289.6 418.0,286.5 442.9,286.8 467.7,220.0 492.6,200.5 517.4,234.5 542.3,286.5 567.1,206.7 592.0,247.8 616.9,276.4 641.7,240.1 666.6,270.6 691.4,304.6 716.3,128.8 741.1,286.5 766.0,286.5 790.9,290.3 815.7,223.5 840.6,160.8 865.4,286.5 890.3,286.5 915.1,286.5 940.0,286.5" fill="none" stroke="#16a34a" stroke-width="2.5"/>
  <text x="70.0" y="398" text-anchor="middle" font-size="11" fill="#475569">2023-01</text>
<text x="505.0" y="398" text-anchor="middle" font-size="11" fill="#475569">2024-07</text>
<text x="940.0" y="398" text-anchor="middle" font-size="11" fill="#475569">2025-12</text>
</svg>
